<?xml version="1.0" encoding="utf-8"?>
<!-- Svg Vector Icons : http://www.onlinewebfonts.com/icon -->
<!DOCTYPE svg PUBLIC "-//W3C//DTD SVG 1.1//EN" "http://www.w3.org/Graphics/SVG/1.1/DTD/svg11.dtd">
<svg version="1.1" xmlns="http://www.w3.org/2000/svg" xmlns:xlink="http://www.w3.org/1999/xlink" x="0px" y="0px" viewBox="0 0 1000 1000" enable-background="new 0 0 1000 1000" xml:space="preserve">
<metadata> Svg Vector Icons : http://www.onlinewebfonts.com/icon </metadata>
<g><g transform="translate(0.000000,512.000000) scale(0.100000,-0.100000)"><path d="M4525.3,5006c-952.3-95.8-1872-473.3-2605.9-1065.4c-249.1-201.2-651.5-615.1-835.4-858.4c-513.5-684.1-831.6-1467.7-960-2356.8C87.7,464.9,93.4-274.7,135.6-548.7c134.1-871.8,438.8-1605.7,956.1-2297.4c176.3-237.6,697.5-758.8,935.1-935.1c839.2-626.6,1770.5-958,2805.2-994.4c1120.9-42.2,2209.2,302.7,3129,992.5c233.8,174.4,653.4,582.5,843.1,818.2c709,881.4,1094.1,1971.6,1096,3096.4c0,1099.8-398.5,2220.8-1101.7,3084.9c-187.8,231.8-609.3,640-837.3,810.5c-674.5,505.8-1431.3,822-2276.3,952.3C5445.1,5015.6,4770.6,5032.9,4525.3,5006z M5502.5,4701.4c1795.4-199.3,3307.2-1429.4,3870.5-3152c153.3-465.6,220.4-900.6,220.4-1427.5s-67.1-961.9-220.4-1427.5c-467.5-1429.4-1594.2-2535-3027.4-2977.6c-726.2-224.2-1621-256.7-2366.4-88.1C2249-3980.5,892.4-2623.9,501.5-893.6c-143.7,636.1-143.7,1394.9,0,2031.1c360.2,1598,1544.4,2883.7,3109.8,3378.1c245.3,78.6,519.3,139.9,779.9,174.4C4621.2,4722.5,5261.1,4728.2,5502.5,4701.4z"/><path d="M6918.6,2189.4c-30.7-34.5-36.4-76.7-42.2-287.4l-7.7-247.2H6635c-254.8,0-302.7-15.3-325.7-105.4c-13.4-55.6,28.7-151.4,74.7-170.5c17.3-5.8,134.1-11.5,258.7-11.5h226.1l7.7-251c5.7-249.1,5.7-251,61.3-298.9c61.3-53.6,128.4-47.9,191.6,13.4c30.7,30.7,36.4,67.1,38.3,281.7l1.9,245.3l251,9.6c212.7,7.7,258.7,15.3,293.2,46c59.4,53.7,53.7,151.4-9.6,201.2c-46,36.4-76.6,40.2-298.9,40.2h-247.2l3.8,63.2c3.8,32.6,3.8,145.6,1.9,247.2c-3.8,164.8-9.6,191.6-46,226.1C7062.3,2243,6966.5,2241.1,6918.6,2189.4z"/><path d="M4623.1,1624.1c-438.8-105.4-758.8-517.3-760.7-975.3c0-193.5,26.8-308.5,115-479c122.6-235.7,364.1-431.1,622.7-500.1c124.5-34.5,394.7-34.5,519.3,0c354.5,93.9,643.8,390.9,728.1,741.5c80.5,343-19.2,682.1-275.9,938.9C5314.8,1606.9,4966,1706.5,4623.1,1624.1z M5138.5,1309.9c84.3-32.6,145.6-76.6,231.8-160.9C5744,773.4,5609.8,154.5,5115.5-31.4c-162.9-61.3-413.9-49.8-565.2,24.9c-141.8,69-266.3,193.5-335.3,335.3c-74.7,151.4-86.2,402.4-24.9,563.3C4333.7,1277.3,4745.7,1459.3,5138.5,1309.9z"/><path d="M4385.5-702c-804.8-174.4-1391.1-732-1515.6-1444.7c-11.5-63.2-21.1-143.7-21.1-178.2v-63.2h139.9h139.9l21.1,160.9c76.6,561.4,513.5,1015.5,1165,1212.9c162.9,49.8,193.5,51.7,546.1,51.7c352.5,0,383.2-1.9,546.1-51.7c358.3-109.2,599.7-254.9,827.8-500.1c206.9-220.4,350.6-542.2,350.6-781.8v-92h145.6h147.5l-11.5,159c-30.7,442.6-320,904.4-749.2,1199.5c-149.4,103.5-475.2,249.1-676.4,302.8c-161,42.1-235.7,49.8-532.7,55.6C4619.2-665.6,4534.9-671.4,4385.5-702z"/></g></g>
</svg>